<?xml version="1.0" encoding="utf-8"?>
<!-- Generator: Adobe Illustrator 22.1.0, SVG Export Plug-In . SVG Version: 6.00 Build 0)  -->
<!DOCTYPE svg PUBLIC "-//W3C//DTD SVG 1.0//EN" "http://www.w3.org/TR/2001/REC-SVG-20010904/DTD/svg10.dtd">
<svg version="1.0" id="Layer_1" xmlns="http://www.w3.org/2000/svg" xmlns:xlink="http://www.w3.org/1999/xlink" x="0px" y="0px"
	 viewBox="0 0 382.2 452" enable-background="new 0 0 382.2 452" xml:space="preserve">
<g>
	<g>
		<path fill="#000066" d="M285.9,411.2c2.8,0,5,2.3,5,5.1c0,2.9-2.2,5.1-5,5.1c-2.8,0-5-2.2-5-5.1
			C280.8,413.5,283,411.2,285.9,411.2L285.9,411.2z M285.8,412c-2.2,0-4.1,1.9-4.1,4.3c0,2.4,1.8,4.3,4.1,4.3c2.3,0,4.1-1.9,4.1-4.3
			S288.1,412,285.8,412L285.8,412z M284.9,419.2H284v-5.7c0.5-0.1,0.9-0.1,1.6-0.1c0.9,0,1.4,0.2,1.8,0.4c0.3,0.2,0.5,0.6,0.5,1.2
			c0,0.7-0.5,1.2-1.1,1.4v0c0.5,0.1,0.8,0.5,0.9,1.4c0.1,0.9,0.3,1.2,0.4,1.4h-1c-0.1-0.2-0.3-0.7-0.4-1.4c-0.1-0.7-0.5-1-1.2-1
			h-0.6V419.2z M284.9,416.1h0.7c0.7,0,1.4-0.3,1.4-1c0-0.5-0.4-1-1.4-1c-0.3,0-0.5,0-0.7,0V416.1z"/>
	</g>
	<path fill="#FFFFFF" d="M183.5,449.9c-6.6-1.9-24.4-7.7-47.5-20.6c-9.8-5.5-19.8-11.8-29.5-18.8c-10.6-7.7-20.9-16.2-30.4-25.3
		c-22.5-21.6-40.2-46.1-52.8-72.8c-7.2-15.3-12.8-31.5-16.6-48.2c-4-18.1-6.1-36.9-6.1-55.8L0,141.7V0h382.2l0,141.8l-0.7,66.7
		c0,19.4-2,38.2-6.1,55.8c-3.8,16.8-9.4,33-16.6,48.2c-12.5,26.7-30.3,51.1-52.7,72.7c-9.6,9.1-19.8,17.6-30.4,25.3
		c-9.7,7-19.6,13.4-29.5,18.8c-23.1,12.8-40.9,18.6-47.4,20.5l-7.7,2.2L183.5,449.9z"/>
	<g>
		<g>
			<path fill="#000066" d="M15.2,145.8l0.7,62.6c0,18.1,1.9,35.7,5.7,52.5c3.5,15.6,8.7,30.8,15.5,45.1c11.8,25,28.4,48,49.5,68.2
				c8.8,8.5,18.5,16.5,28.7,23.9c8.9,6.5,18.3,12.4,28,17.8c21.8,12.1,38.2,17.5,44.3,19.2l3.5,1l3.5-1c6.1-1.7,22.5-7.1,44.3-19.2
				c9.6-5.4,19-11.3,28-17.8c10.2-7.4,19.9-15.4,28.7-23.9c21.1-20.3,37.7-43.2,49.5-68.2c6.7-14.3,11.9-29.5,15.5-45.1
				c3.8-16.8,5.7-34.4,5.7-52.5l0.7-62.6L15.2,145.8L15.2,145.8z M360,208.5c0,17.6-1.9,34.8-5.6,51.2c-3.4,15.1-8.5,29.9-15,43.8
				c-11.5,24.3-27.7,46.7-48.2,66.4c-8.6,8.3-18.1,16.2-28,23.4c-8.7,6.3-17.9,12.2-27.3,17.4c-21.2,11.8-37.1,17-43,18.7l-1.8,0.5
				l-1.8-0.5c-5.9-1.7-21.8-6.9-43-18.7c-9.4-5.2-18.6-11.1-27.3-17.4c-10-7.2-19.4-15.1-28-23.4c-20.5-19.7-36.7-42.1-48.2-66.4
				c-6.6-13.9-11.6-28.6-15-43.8c-3.7-16.3-5.6-33.6-5.6-51.2l-0.6-56.3h339L360,208.5z"/>
			<path fill="#000066" d="M32.7,258.1c3.3,14.8,8.3,29.2,14.6,42.8c11.2,23.8,27,45.6,47,64.9c8.4,8.1,17.6,15.8,27.4,22.9
				c8.5,6.2,17.5,11.9,26.7,17.1c20.7,11.6,36.2,16.6,41.8,18.3l0.9,0.2l0.9-0.2c5.7-1.6,21.1-6.7,41.8-18.3
				c9.2-5.1,18.2-10.9,26.7-17.1c9.7-7.1,19-14.8,27.4-22.9c20-19.3,35.8-41.1,47-64.9c6.4-13.6,11.3-28,14.6-42.8
				c3.6-16,5.4-32.8,5.4-50.1l0.5-52.7H26.7l0.5,52.7C27.2,225.2,29.1,242.1,32.7,258.1z M352.3,158.3l-0.5,49.6
				c0,141.8-122.6,202.2-160.7,213.2C153,410.1,30.4,349.9,30.4,208l-0.5-49.6H352.3z"/>
			<g>
				<rect x="15.2" y="131.6" fill="#000066" width="351.8" height="8.9"/>
				<rect x="15.2" y="15.1" fill="#000066" width="351.8" height="10.3"/>
				<g>
					<rect x="57.2" y="68.1" fill="#000066" width="310" height="3.1"/>
					<g>
						<path fill="#000066" d="M81.3,91.1c0.2-6.2,0.2-8,7.1-9v-0.9H69.1v0.9c6.9,1,7,2.8,7.1,9v21.1c-0.2,6.2-0.2,8-7.1,9v0.9h19.4
							v-0.9c-6.9-1-7-2.8-7.1-9V91.1H81.3z"/>
						<path fill="#000066" d="M256.1,80.5c-12.6,0-22,8.3-22,21.1c0,13,9.4,21.3,22.1,21.3s22.1-8.2,22.1-21.2
							C278.3,91,271.6,80.5,256.1,80.5z M255.6,82c9.2,0,15.5,10.1,15.6,20.8c0,8.6-4.4,18.7-14.4,18.7c-10.9,0-15.8-11.9-15.8-21.3
							C241.1,92.1,245.3,82,255.6,82z"/>
						<path fill="#000066" d="M287.2,81.3h-10v0.9c7.7,1.7,8.6,4,8.6,10.1v9c0,13.7,0.3,19.2-7.8,20v0.9h18v-0.9
							c-8.8-1.7-8.4-4.8-8.4-19.7V90.5c10.2,11,21,21.5,30.6,32.9l0.8-0.2c-0.3-13.1-0.6-27.6,0.2-34.3c0.5-3.9,1.3-6.2,5.4-6.7
							v-0.9h-16.5v0.9c6.8,1.2,8.4,2.9,8.5,8.6l0.3,22L287.2,81.3z"/>
						<path fill="#000066" d="M127.5,83.8c-4-2.3-8.6-3.3-13.2-3.3C98.4,80.5,90,91.3,90,102.1c0,13.6,11.2,20.8,23.8,20.8
							c4.3,0,8.5-0.7,12.3-2.6c1.4-3.5,2.6-7.1,3.3-10.8l-0.8-0.4c-2.7,6.5-5.9,12.3-13.8,12.3c-8.8,0-17.9-8.2-17.9-20.1
							c0-10.4,6.2-19.4,17.3-19.4c7.2,0,11.2,4.9,12.4,11.7h0.9V83.8z"/>
						<path fill="#000066" d="M142.1,102.4h24.3v9.9c0,6.6-0.1,7.8-8,9v0.9h20.7v-0.9c-7.2-1-7.3-2.8-7.5-9V91.1
							c0.2-6.2,0.2-8,7.5-9v-0.9h-20.8v0.9c7.9,1.1,8,2.3,8,9v8.8h-24.2v-8.7c0-6.6,0.1-7.8,8-9v-0.9h-20.8v0.9c7.2,1,7.3,2.8,7.5,9
							v21.2c-0.2,6.2-0.2,8-7.5,9v0.9h20.8v-0.9c-7.9-1.1-8-2.3-8-9V102.4z"/>
						<path fill="#000066" d="M195.5,87.9c-0.4-1-2.1-4.6-0.7-6l-0.1-0.7h-13v0.9c3.6,0.3,7,1.7,6.6,5.7l-0.8,8.2l-2.2,16.9
							c-0.8,4.9-1.4,7.5-6.8,8.4v0.9h16.8v-0.9c-7.3-1.2-7.4-3.9-7.2-6.3c0.4-9.3,0.9-16,1.9-25.2h0.1l14.3,32.4h0.7l15.4-33.8h0.1
							l1.6,26.3c0.3,5.3-2.7,5.8-7.3,6.6v0.9h19.9v-0.9c-6.5-1.1-6.5-2.4-7.1-10.8l-1.3-21.9c-0.2-4.2,2.1-5.7,6-6.4v-0.9h-13.3
							l-0.1,1c1.3,0.9,0.5,3.9-1,7.2l-10.9,24L195.5,87.9z"/>
						<path fill="#000066" d="M29.7,71.2c7.8-0.1,15.5,3.5,15.5,12.4c0,8.4-8.3,11.8-15.5,11.9C29.7,95.5,29.7,71.2,29.7,71.2z
							 M23.2,109c-0.2,7.8-0.3,10.1-9.2,11.3v1.1h26.1v-1.1c-10.2-1.4-10.3-3-10.3-11.3V96.8c5.2,0.9,7.9-0.9,10.9,5.4
							c1.6,3.3,5.4,10,10.3,15.2c4.3,4.6,10.1,4.3,18,4.7l0.2-1.1c-12.3-2.6-19.4-15.7-25.1-25.9l-0.4-0.5c5.4-2.4,9.2-6.1,9.2-12.5
							c0-3.7-1.5-13-20.2-12.4l-18.2,0.5v1.1c8.3,0.8,8.7,2.5,8.7,14.2V109z"/>
						<path fill="#000066" d="M324.3,82.2c6.9,1,6.9,3,7.1,9.2v20.9c-0.2,6.2-0.2,8-7.5,9v0.9l18,0.1c20.8,0.2,26.3-11.9,26.3-20.5
							c0-6.3-2.8-21.6-29.3-20.7l-14.6,0.2V82.2z M359.4,93.7c3.2,6.3,1.8,14.9-1.5,20.6c-4.4,5.3-10.8,7.5-17.3,5.4
							c-2.1-0.8-3-2.7-3.3-4.7V82.8C346,83.1,354.9,85.4,359.4,93.7z"/>
					</g>
					<g>
						<path fill="#000066" d="M34.8,36.5V37c4.2,0.4,4.5,2.1,4.5,6v3.2c0,3.7,0.6,9.9-5.9,9.9c-8.3,0-7.3-7.8-7.3-8.4v-6.2
							c0-3.3,0.1-3.9,4-4.5v-0.5H19.7V37c3.6,0.5,3.7,1.4,3.7,4.5v6.8c0,2.4-1,9.2,8.4,9.2c6.7,0,8.4-4,8.5-7.9l0.2-6.6
							c0.1-4,0.3-5.7,3-6v-0.5C43.6,36.5,34.8,36.5,34.8,36.5z"/>
						<path fill="#000066" d="M58.6,36.5h-5V37c3.8,0.8,4.3,2,4.3,5v4.5c0,6.9,0.2,9.6-3.9,10.1v0.5h9v-0.5
							c-4.4-0.9-4.2-2.4-4.2-9.9v-5.6c5.1,5.5,10.5,10.8,15.3,16.5l0.4-0.1c-0.2-6.6-0.3-13.9,0.1-17.2c0.2-2,0.6-3.1,2.7-3.4v-0.5
							h-8.2v0.5c3.4,0.6,4.2,1.5,4.2,4.3l0.2,11L58.6,36.5z"/>
						<path fill="#000066" d="M94.3,41.5c0.1-3.1,0.1-4,3.7-4.5v-0.5H87.9V37c3.6,0.5,3.7,1.4,3.7,4.5v10.6c-0.1,3.1-0.1,4-3.7,4.5
							v0.5H98v-0.5c-3.6-0.5-3.7-1.4-3.7-4.5C94.3,52.1,94.3,41.5,94.3,41.5z"/>
						<path fill="#000066" d="M120.9,36.5V37c4.6,0.7,4.1,1.7,1.5,7.9l-3.6,8.5L114,41.7c-0.8-1.9-2.2-4.3,2.1-4.7v-0.5h-9.6V37
							c2.7,0.3,3.4,2.2,4.3,4.4l6.8,16.3h0.4l5.8-13.8c1.9-4.4,2.8-6.8,5.6-7v-0.5h-8.5C120.9,36.4,120.9,36.5,120.9,36.5z"/>
						<path fill="#000066" d="M137.7,57.1h16.8c0.6-1.8,1-3.7,1-6h-0.4c-0.8,3.8-2.6,5.3-6.4,5.3c-5,0-4.5-2.5-4.5-4.3v-5h3.1
							c2.3,0,3.9,0,4.3,2.7h0.5v-6.7h-0.5c-0.3,2.6-2.1,2.8-4.3,2.8h-3.2v-8.6h2.9c3,0,5.9,0,6.1,3.9h0.5l0.4-4.7h-16.2V37
							c3.6,0.5,3.7,1.4,3.7,4.5v10.6c-0.1,3.1-0.1,4-3.7,4.5L137.7,57.1L137.7,57.1z"/>
						<path fill="#000066" d="M173,37.1c3.2,0,6.3,1.4,6.3,4.9c0,3.4-3.4,4.7-6.3,4.7V37.1z M170.3,52.1c-0.1,3.1-0.1,4-3.7,4.5v0.5
							h10.6v-0.5c-4.1-0.6-4.2-1.2-4.2-4.5v-4.9c2.1,0.4,3.2-0.4,4.4,2.1c0.6,1.3,2.2,4,4.2,6c1.8,1.8,4.1,1.7,7.3,1.9l0.1-0.5
							c-5-1-7.9-6.2-10.2-10.3l-0.2-0.2c2.2-1,3.7-2.4,3.7-5c0-1.4-0.6-5.2-8.2-4.9l-7.4,0.2v0.4c3.4,0.3,3.5,1,3.5,5.6L170.3,52.1
							L170.3,52.1z"/>
						<path fill="#000066" d="M209,37.3c-1.3-0.7-2.9-1.2-4.4-1.2c-3.2,0-6.7,2.2-6.7,5.8c0,6,9.2,5.6,9.2,10.9c0,2.4-1.7,3.7-4,3.7
							c-3.3,0-5.3-2.9-6.1-5.8h-0.5l0.9,5.1c1.5,1,3.5,1.5,5.3,1.5c3.5,0,7.3-2,7.3-5.9c0-6.1-9.5-5.9-9.5-11.1c0-2,1.6-3.3,3.5-3.3
							c3,0,3.8,2.4,4.3,4.8h0.5L209,37.3z"/>
						<path fill="#000066" d="M227.1,41.5c0.1-3.1,0.1-4,3.7-4.5v-0.5h-10.1V37c3.6,0.5,3.7,1.4,3.7,4.5v10.6
							c-0.1,3.1-0.1,4-3.7,4.5v0.5h10.1v-0.5c-3.6-0.5-3.7-1.4-3.7-4.5V41.5z"/>
						<path fill="#000066" d="M259.8,35.8c-0.8,0.7-0.9,0.7-1.9,0.7h-13.8c-1,0-1.1,0-1.9-0.7l-0.3-0.3h-0.2l-0.4,5.7l0.4,0.1
							c1.1-3.7,2.7-3.9,6.2-3.9h1.8v14c0,3.7-0.2,4.7-4.2,5.2v0.5h11.1v-0.5c-4-0.5-4.2-1.5-4.2-5.2v-14h1.8c3.5,0,5.1,0.1,6.2,3.9
							l0.4-0.1l-0.4-5.7h-0.3L259.8,35.8z"/>
						<path fill="#000066" d="M280.8,36.5V37c2.6,0.3,2.9,1.5,1,5l-2.6,5l-3-6.5c-1-2.1-1.3-3.1,1.2-3.4v-0.5h-8.3v0.5
							c3.1,0.4,3.9,2.5,5,5l3.1,6.9v2.4c-0.1,3.5-0.1,4.7-4,5.3v0.5h10.6v-0.5c-3.9-0.6-3.9-1.8-4-5.3v-3.5l3.6-7.1
							c1.3-2.2,2.6-3.6,5.2-3.8v-0.5H280.8z"/>
						<path fill="#000066" d="M326.1,36.2c-6.3,0-11,4.2-11,10.6c0,6.5,4.7,10.7,11.1,10.7c6.3,0,11.1-4.1,11.1-10.6
							C337.2,41.4,333.9,36.2,326.1,36.2z M325.9,36.9c4.6,0,7.7,5.1,7.8,10.4c0,4.3-2.2,9.4-7.2,9.4c-5.4,0-7.9-6-7.9-10.7
							C318.6,42,320.7,36.9,325.9,36.9z"/>
						<path fill="#000066" d="M362.4,43.2c-0.2,2.9-1.8,3.1-4.4,3.1h-3.3v-9h2.8c3.2,0,5.7,0.2,5.9,4h0.5l0.5-4.8h-16V37
							c3.6,0.5,3.7,1.4,3.7,4.5v10.6c-0.1,3.1-0.1,4-3.7,4.5v0.5h10.8v-0.5c-4.2-0.6-4.3-1.3-4.3-4.5v-4.6h3.3c2.5,0,4.1-0.1,4.4,3
							h0.5v-7.4h-0.7L362.4,43.2L362.4,43.2z"/>
					</g>
				</g>
			</g>
		</g>
		<g>
			<rect x="222.6" y="289.6" fill="#990000" width="63" height="63"/>
			<rect x="222.6" y="163.5" fill="#990000" width="63" height="63"/>
			<rect x="96.6" y="163.5" fill="#990000" width="63" height="63"/>
			<rect x="96.6" y="289.6" fill="#990000" width="63" height="63"/>
			<rect x="159.6" y="226.6" fill="#990000" width="63" height="63"/>
			<path fill="#990000" d="M159.6,352.6v49.8c14.8,7.7,26,11.6,31.5,13.2c5.5-1.7,16.7-5.6,31.5-13.2v-49.8H159.6z"/>
			<path fill="#990000" d="M345.9,226.6h-60.3v63h45.2c4.5-10.7,8-21.9,10.6-33.3C343.6,246.7,345,236.7,345.9,226.6z"/>
			<path fill="#990000" d="M96.6,226.6H36.3c0.8,10.1,2.3,20.1,4.5,29.7c2.6,11.4,6.1,22.6,10.6,33.3h45.2V226.6z"/>
		</g>
	</g>
</g>
</svg>
